<svg width="64" height="64" viewBox="0 0 64 64" fill="none" xmlns="http://www.w3.org/2000/svg">
<path fill-rule="evenodd" clip-rule="evenodd" d="M13 50V57H11V50H5.50555L8.06218 45.5718L2 42.0718L3 40.3397L9.06218 43.8397L12.0622 38.6436L6 35.1436L7 33.4115L13.0622 36.9115L16.0622 31.7154L10 28.2154L11 26.4833L17.0622 29.9833L20.0622 24.7872L14 21.2872L15 19.5551L21.0622 23.0551L24.0622 17.859L18 14.359L19 12.6269L25.0622 16.1269L28.0622 10.9308L22 7.43078L23 5.69872L29.0622 9.19872L32.0051 4.10141L34.9481 9.19872L41.0102 5.69872L42.0102 7.43078L35.9481 10.9308L38.9481 16.1269L45.0102 12.6269L46.0102 14.359L39.9481 17.859L42.9481 23.0551L49.0102 19.5551L50.0102 21.2872L43.9481 24.7872L46.9481 29.9833L53.0102 26.4833L54.0102 28.2154L47.9481 31.7154L50.9481 36.9115L57.0102 33.4115L58.0102 35.1436L51.9481 38.6436L54.9481 43.8397L61.0102 40.3397L62.0102 42.0718L55.9481 45.5718L58.5047 50H53V57H51V50H45V57H43V50H37V57H35V50H29V57H27V50H21V57H19V50H13ZM32.0051 10.1014L10.7017 47H53.3085L32.0051 10.1014Z" fill="black"/>
</svg>
