<svg width="64" height="64" viewBox="0 0 64 64" fill="none" xmlns="http://www.w3.org/2000/svg">
<path d="M55 46V56H9V46H29V16.3916C26.3541 14.289 24.5315 13.9221 23.4028 14.0569C22.1639 14.205 20.8381 15.0716 19.5256 17.119C16.8417 21.3059 15.5 28.5188 15.5 34H9.5C9.5 27.9812 10.9083 19.4441 14.4744 13.881C16.2869 11.0534 18.9611 8.54502 22.6909 8.09932C25.745 7.73437 28.8641 8.83193 31.9987 11.1342C35.1334 8.83159 38.2529 7.73383 41.3071 8.09881C45.037 8.54451 47.7111 11.0529 49.5237 13.8805C53.0898 19.4436 54.498 27.9807 54.498 33.9995H48.498C48.498 28.5183 47.1563 21.3054 44.4724 17.1185C43.16 15.0711 41.8341 14.2045 40.5952 14.0564C39.4668 13.9216 37.6449 14.2883 35 16.3896V46H55Z" fill="black"/>
</svg>
