<svg width="64" height="64" viewBox="0 0 64 64" fill="none" xmlns="http://www.w3.org/2000/svg">
<path fill-rule="evenodd" clip-rule="evenodd" d="M59 5V59H5V5H22V0H42V5H59ZM56 8H8V56H56V8Z" fill="black"/>
<rect x="8" y="8" width="48" height="48" fill="white" fill-opacity="0.75"/>
<path fill-rule="evenodd" clip-rule="evenodd" d="M42 45V48H22V45H24V18C24 16.8954 24.8954 16 26 16H38C39.1046 16 40 16.8954 40 18V28C41.3366 28 42.7627 28.4871 43.8719 29.2794C44.9693 30.0633 46 31.3373 46 33V40.9832L46.0011 41.0006C46.0031 41.029 46.0079 41.0795 46.0187 41.144C46.0413 41.2802 46.0839 41.4388 46.1541 41.5792C46.2214 41.7137 46.2988 41.8027 46.3867 41.8613C46.4653 41.9137 46.6375 42 47 42C47.2343 42 47.3401 41.9329 47.4218 41.8565C47.5374 41.7487 47.6656 41.5516 47.7749 41.2455C47.8812 40.9479 47.9406 40.6288 47.9715 40.3696C47.9864 40.2438 47.9936 40.1411 47.9971 40.074C47.9988 40.0406 47.9995 40.0166 47.9998 40.0036L48 39.9941V24.0086C48 23.4894 47.7982 22.9906 47.4371 22.6176L42.5743 17.5934C42.3594 17.3713 42.5167 17.0048 42.8254 17.0196C46.734 17.2071 51 18.788 51 23.8153C51 27.6307 51 39.9998 51 39.9998C51 39.9998 51 39.9989 51 40.0011L51 40.0049L51 40.011L50.9998 40.0273L50.9994 40.0566L50.999 40.075C50.9981 40.1133 50.9963 40.1645 50.9932 40.2268C50.9868 40.3511 50.9745 40.5218 50.9504 40.7242C50.9032 41.1212 50.8063 41.6771 50.6001 42.2545C50.3969 42.8234 50.0563 43.5013 49.4688 44.0497C48.8474 44.6296 48.0157 45 47 45C46.1125 45 45.3472 44.7738 44.7226 44.3575C44.1075 43.9473 43.7161 43.4113 43.4709 42.9208C43.2286 42.4362 43.1149 41.9698 43.0595 41.6372C42.978 41.1482 43 37 43 33C43 32.6627 42.7807 32.1867 42.1281 31.7206C41.4873 31.2629 40.6634 31 40 31V38V45H42ZM36 19H28C27.4477 19 27 19.4477 27 20V28H37V20C37 19.4477 36.5523 19 36 19Z" fill="black"/>
</svg>
