<svg width="64" height="64" viewBox="0 0 64 64" fill="none" xmlns="http://www.w3.org/2000/svg">
<path fill-rule="evenodd" clip-rule="evenodd" d="M59 5V59H5V5H22V0H42V5H59ZM56 8H8V56H56V8Z" fill="black"/>
<rect x="8" y="8" width="48" height="48" fill="white" fill-opacity="0.75"/>
<path d="M19.5 24.5H24.5V25.5H19.5V24.5Z" fill="black"/>
<path d="M21.5 18.5L25.8301 21L25.3301 21.866L21 19.366L21.5 18.5Z" fill="black"/>
<path d="M26.3 14L28.8 18.3301L27.934 18.8301L25.434 14.5L26.3 14Z" fill="black"/>
<path d="M31.5 12.5H32.5V17.5H31.5V12.5Z" fill="black"/>
<path d="M44.5 24.5H39.5V25.5H44.5V24.5Z" fill="black"/>
<path d="M42.5 18.5L38.1699 21L38.6699 21.866L43 19.366L42.5 18.5Z" fill="black"/>
<path d="M37.7 14L35.2 18.3301L36.066 18.8301L38.566 14.5L37.7 14Z" fill="black"/>
<path fill-rule="evenodd" clip-rule="evenodd" d="M48.5 48.5V51.5H15.5V48.5H24.0319L27.8579 26.8015C27.3164 26.0023 27 25.0381 27 24C27 21.2386 29.2386 19 32 19C34.7614 19 37 21.2386 37 24C37 25.0381 36.6836 26.0023 36.1421 26.8015L39.9681 48.5H48.5ZM32 27C33.6569 27 35 25.6569 35 24C35 22.3431 33.6569 21 32 21C30.3431 21 29 22.3431 29 24C29 25.6569 30.3431 27 32 27ZM30.0764 28.6166C30.6686 28.8636 31.3183 29 32 29C32.6817 29 33.3314 28.8636 33.9236 28.6166L37.4296 48.5H26.5704L30.0764 28.6166Z" fill="black"/>
</svg>
