<svg width="64" height="64" viewBox="0 0 64 64" fill="none" xmlns="http://www.w3.org/2000/svg">
<path fill-rule="evenodd" clip-rule="evenodd" d="M59 5V59H5V5H22V0H42V5H59ZM56 8H8V56H56V8Z" fill="black"/>
<rect x="8" y="8" width="48" height="48" fill="white" fill-opacity="0.75"/>
<path fill-rule="evenodd" clip-rule="evenodd" d="M38.5 46.4144C38.5 45.5667 39.0397 44.8217 39.8126 44.4739C46.0504 41.6668 50 35.3352 50 28C50 18.0589 41.9411 10 32 10C22.0589 10 14 18.0589 14 28C14 35.3352 17.9496 41.6668 24.1874 44.4739C24.9603 44.8217 25.5 45.5667 25.5 46.4144V50.5C25.5 51.5 28 53.5 32 53.5C36 53.5 38.5 51.5 38.5 50.5V46.4144ZM28 49.7849C28.1378 49.8748 28.2928 49.9694 28.4641 50.0646C29.3217 50.541 30.5297 51 32 51C33.5889 51 34.7941 50.6017 35.5359 50.1896C35.738 50.0773 35.8904 49.9726 36 49.8868V44.6464C36 43.7988 36.5343 43.0432 37.3335 42.7607L37.6669 42.6429C43.5784 40.5535 47.5 34.866 47.5 28C47.5 19.4396 40.5604 12.5 32 12.5C23.4396 12.5 16.5 19.4396 16.5 28C16.5 34.866 20.4216 40.5535 26.3331 42.6429L26.6665 42.7607C27.4657 43.0432 28 43.7988 28 44.6464V49.7849ZM36.2325 49.6639C36.2325 49.6639 36.2256 49.6764 36.2035 49.7016C36.2201 49.6766 36.2325 49.6639 36.2325 49.6639Z" fill="black"/>
</svg>
