<svg width="64" height="64" viewBox="0 0 64 64" fill="none" xmlns="http://www.w3.org/2000/svg">
<path fill-rule="evenodd" clip-rule="evenodd" d="M59 5V59H5V5H22V0H42V5H59ZM56 8H8V56H56V8Z" fill="black"/>
<rect x="8" y="8" width="48" height="48" fill="white" fill-opacity="0.75"/>
<path fill-rule="evenodd" clip-rule="evenodd" d="M38.5 46.4144C38.5 45.5667 39.0397 44.8217 39.8126 44.4739C46.0504 41.6668 50 35.3352 50 28C50 18.0589 41.9411 10 32 10C22.0589 10 14 18.0589 14 28C14 35.3352 17.9496 41.6668 24.1874 44.4739C24.9603 44.8217 25.5 45.5667 25.5 46.4144V50.5C25.5 51.5 28 53.5 32 53.5C36 53.5 38.5 51.5 38.5 50.5V46.4144ZM28 49.7849C28.1378 49.8748 28.2928 49.9694 28.4641 50.0646C29.3217 50.541 30.5297 51 32 51C33.5889 51 34.7941 50.6017 35.5359 50.1896C35.738 50.0773 35.8904 49.9726 36 49.8868V44.6464C36 43.7988 36.5343 43.0432 37.3335 42.7607L37.6669 42.6429C43.5784 40.5535 47.5 34.866 47.5 28C47.5 19.4396 40.5604 12.5 32 12.5C23.4396 12.5 16.5 19.4396 16.5 28C16.5 34.866 20.4216 40.5535 26.3331 42.6429L26.6665 42.7607C27.4657 43.0432 28 43.7988 28 44.6464V49.7849ZM36.2325 49.6639C36.2325 49.6639 36.2256 49.6764 36.2035 49.7016C36.2201 49.6766 36.2325 49.6639 36.2325 49.6639Z" fill="black"/>
<path fill-rule="evenodd" clip-rule="evenodd" d="M25.0165 24.3875C24.3346 23.6597 24.044 23.4446 23.6129 23.4936C23.1175 23.5499 22.4473 23.9741 21.7941 24.5636C21.493 24.8352 21.2366 25.1039 21.0552 25.3053C20.9651 25.4054 20.8947 25.4875 20.8479 25.5432C20.8246 25.571 20.8073 25.5921 20.7964 25.6055L20.785 25.6196L20.7835 25.6214C20.7835 25.6214 20.7837 25.6211 20 25C19.2163 24.3789 19.2166 24.3785 19.2166 24.3785L19.2176 24.3772L19.2196 24.3747L19.2256 24.3672L19.2456 24.3425C19.2623 24.322 19.2859 24.2933 19.3159 24.2575C19.3759 24.1861 19.4616 24.0862 19.5691 23.9668C19.7832 23.7291 20.0889 23.4084 20.4542 23.0787C21.1337 22.4656 22.2136 21.6398 23.3871 21.5064C24.9019 21.3343 25.8455 22.3449 26.4186 22.9587C26.4381 22.9796 26.4572 23 26.4759 23.0199C27.1686 23.7592 27.482 24.0254 27.9485 24.0013C28.3844 23.9789 28.6585 23.7238 29.2485 23.0537C29.2638 23.0363 29.2794 23.0186 29.2953 23.0005C29.7996 22.426 30.6124 21.5 32 21.5C33.386 21.5 34.201 22.4491 34.696 23.0257C34.7169 23.05 34.7372 23.0737 34.757 23.0966C35.3476 23.7809 35.6024 24 36 24C36.3976 24 36.6524 23.7809 37.243 23.0966C37.2628 23.0737 37.2831 23.05 37.304 23.0257C37.799 22.4491 38.614 21.5 40 21.5C40.6768 21.5 41.3175 21.726 41.8551 21.9991C42.4002 22.276 42.903 22.6342 43.3211 22.9737C43.7421 23.3155 44.097 23.6546 44.3461 23.9073C44.4713 24.0342 44.5713 24.1409 44.6412 24.2172C44.6761 24.2554 44.7037 24.2861 44.7232 24.3081L44.7463 24.3343L44.7532 24.3423L44.7564 24.3459C44.7564 24.3459 44.757 24.3466 44 25C43.243 25.6534 43.2432 25.6537 43.2432 25.6537L43.2412 25.6514L43.2275 25.6358C43.2145 25.6211 43.1938 25.5981 43.1662 25.568C43.1109 25.5075 43.0279 25.4189 42.922 25.3115C42.7089 25.0954 42.4092 24.8095 42.0604 24.5263C41.7088 24.2408 41.3268 23.974 40.9492 23.7822C40.5641 23.5865 40.2442 23.5 40 23.5C39.6024 23.5 39.3476 23.7191 38.757 24.4034C38.7372 24.4263 38.7169 24.45 38.696 24.4743C38.201 25.0509 37.386 26 36 26C34.614 26 33.799 25.0509 33.304 24.4743C33.2831 24.45 33.2628 24.4263 33.243 24.4034C32.6524 23.7191 32.3976 23.5 32 23.5C31.5892 23.5 31.3288 23.7174 30.7497 24.3752C30.7269 24.4011 30.7034 24.4279 30.6793 24.4555C30.1839 25.0219 29.39 25.9297 28.0515 25.9987C26.5853 26.0743 25.6651 25.0847 25.1003 24.4774C25.0714 24.4463 25.0435 24.4163 25.0165 24.3875Z" fill="black"/>
<path fill-rule="evenodd" clip-rule="evenodd" d="M25.0199 31.9005C24.338 31.1728 24.0475 30.9577 23.6164 31.0067C23.1209 31.063 22.4508 31.4871 21.7975 32.0766C21.4965 32.3482 21.2401 32.6169 21.0587 32.8183C20.9685 32.9185 20.8981 33.0006 20.8514 33.0562C20.828 33.0841 20.8107 33.1052 20.7998 33.1185L20.7884 33.1326L20.7869 33.1345C20.7869 33.1345 20.7872 33.1342 20.0034 32.5131C19.2197 31.8919 19.22 31.8916 19.22 31.8916L19.2211 31.8903L19.2231 31.8878L19.2291 31.8802L19.249 31.8556C19.2658 31.835 19.2894 31.8063 19.3194 31.7706C19.3793 31.6992 19.465 31.5993 19.5726 31.4799C19.7866 31.2422 20.0923 30.9214 20.4577 30.5917C21.1371 29.9786 22.217 29.1528 23.3905 29.0194C24.9053 28.8473 25.8489 29.8579 26.4221 30.4717C26.4416 30.4926 26.4607 30.5131 26.4793 30.533C27.172 31.2722 27.4854 31.5384 27.952 31.5144C28.3878 31.4919 28.662 31.2369 29.2519 30.5667C29.2672 30.5493 29.2828 30.5316 29.2987 30.5135C29.803 29.939 30.6159 29.013 32.0034 29.013C33.3895 29.013 34.2044 29.9622 34.6995 30.5388C34.7204 30.5631 34.7407 30.5867 34.7604 30.6096C35.3511 31.2939 35.6058 31.513 36.0034 31.513C36.401 31.513 36.6558 31.2939 37.2464 30.6096C37.2662 30.5867 37.2865 30.5631 37.3074 30.5388C37.8025 29.9622 38.6174 29.013 40.0034 29.013C40.6803 29.013 41.3209 29.239 41.8585 29.5121C42.4037 29.7891 42.9064 30.1472 43.3246 30.4867C43.7455 30.8285 44.1004 31.1677 44.3496 31.4203C44.4747 31.5473 44.5747 31.6539 44.6446 31.7303C44.6796 31.7684 44.7071 31.7991 44.7266 31.8211L44.7498 31.8474L44.7567 31.8553L44.7598 31.8589C44.7598 31.8589 44.7604 31.8596 44.0034 32.5131C43.2464 33.1665 43.2467 33.1667 43.2467 33.1667L43.2446 33.1644L43.2309 33.1488C43.2179 33.1342 43.1973 33.1112 43.1696 33.081C43.1143 33.0206 43.0313 32.9319 42.9254 32.8245C42.7124 32.6084 42.4127 32.3226 42.0639 32.0394C41.7123 31.7539 41.3302 31.487 40.9527 31.2952C40.5675 31.0996 40.2477 31.013 40.0034 31.013C39.6058 31.013 39.3511 31.2322 38.7604 31.9165C38.7407 31.9394 38.7204 31.963 38.6995 31.9873C38.2044 32.5639 37.3895 33.513 36.0034 33.513C34.6174 33.513 33.8025 32.5639 33.3074 31.9873C33.2865 31.963 33.2662 31.9394 33.2464 31.9165C32.6558 31.2322 32.401 31.013 32.0034 31.013C31.5926 31.013 31.3323 31.2304 30.7531 31.8883C30.7303 31.9141 30.7069 31.941 30.6827 31.9686C30.1873 32.535 29.3934 33.4427 28.0549 33.5117C26.5887 33.5873 25.6685 32.5978 25.1037 31.9904C25.0749 31.9594 25.0469 31.9293 25.0199 31.9005Z" fill="black"/>
</svg>
