<svg width="64" height="64" viewBox="0 0 64 64" fill="none" xmlns="http://www.w3.org/2000/svg">
<path fill-rule="evenodd" clip-rule="evenodd" d="M59 5V59H5V5H22V0H42V5H59ZM56 8H8V56H56V8Z" fill="black"/>
<rect x="8" y="8" width="48" height="48" fill="white" fill-opacity="0.75"/>
<path fill-rule="evenodd" clip-rule="evenodd" d="M48 18V20.5H33.5V47.1985C40.1985 46.7206 43.8694 44.6007 47.9788 38.7791L50.0212 40.2209C46.926 44.6057 43.7771 47.259 40.684 48.8055C37.588 50.3535 34.6329 50.75 32 50.75C29.367 50.75 26.412 50.3535 23.316 48.8055C20.2229 47.259 17.0739 44.6057 13.9788 40.2209L16.0212 38.7791C20.1305 44.6007 23.8015 46.7206 30.5 47.1985V20.5H16V18H28.9995C27.7853 17.0878 27 15.6356 27 14C27 11.2386 29.2385 9 32 9C34.7614 9 37 11.2386 37 14C37 15.6357 36.2143 17.0878 35 18H48ZM32 16.2C33.215 16.2 34.2 15.215 34.2 14C34.2 12.785 33.215 11.8 32 11.8C30.7849 11.8 29.8 12.785 29.8 14C29.8 15.215 30.7849 16.2 32 16.2Z" fill="black"/>
<path d="M51.4883 32.5846L51.0884 41.0764L45.999 38.9845L51.4883 32.5846Z" fill="black"/>
<path d="M12.5117 32.5846L12.9116 41.0764L18.001 38.9845L12.5117 32.5846Z" fill="black"/>
</svg>
