<svg width="64" height="64" viewBox="0 0 64 64" fill="none" xmlns="http://www.w3.org/2000/svg">
<path fill-rule="evenodd" clip-rule="evenodd" d="M59 5V59H5V5H22V0H42V5H59ZM56 8H8V56H56V8Z" fill="black"/>
<rect x="8" y="8" width="48" height="48" fill="white" fill-opacity="0.75"/>
<path fill-rule="evenodd" clip-rule="evenodd" d="M36.5 19.5V21.5H33V24.4952L36.9352 24.4952L43.0669 48H41L40.7037 46.8642L31.9567 41.2044L23.2098 46.8643L22.9135 48H20.8466L26.9783 24.4951L31 24.4952V21.5H27.5V19.5H31V16.5H29.5V14.5H31V12H33V14.5H34.5V16.5H33V19.5H36.5ZM35.872 28.3426L35.3913 26.5L28.5222 26.5L28.0415 28.3426L31.9567 30.6265L35.872 28.3426ZM37.2774 33.7302L36.3962 30.3522L33.9414 31.7842L37.2774 33.7302ZM36.736 35.7298L31.9567 38.8223L27.1775 35.7298L31.9567 32.9419L36.736 35.7298ZM39.9561 43.9983L38.1772 37.1794L33.7975 40.0134L39.9561 43.9983ZM23.9574 43.9983L25.7363 37.1794L30.116 40.0134L23.9574 43.9983ZM26.636 33.7302L27.5173 30.3522L29.9721 31.7842L26.636 33.7302Z" fill="black"/>
</svg>
