<svg width="64" height="64" viewBox="0 0 64 64" fill="none" xmlns="http://www.w3.org/2000/svg">
<path fill-rule="evenodd" clip-rule="evenodd" d="M44 46C44 52.6274 38.6274 58 32 58C25.3726 58 20 52.6274 20 46C20 44.8049 20.1747 43.6505 20.5 42.5611L32 7L43.5 42.5611C43.8253 43.6505 44 44.8049 44 46ZM32 54C36.4183 54 40 50.4183 40 46C40 41.5817 36.4183 38 32 38C27.5817 38 24 41.5817 24 46C24 50.4183 27.5817 54 32 54ZM37 35.0881C35.4779 34.3895 33.7844 34 32 34C30.2156 34 28.5221 34.3895 27 35.0881L32 19L37 35.0881Z" fill="black"/>
</svg>
