<svg width="64" height="64" viewBox="0 0 64 64" fill="none" xmlns="http://www.w3.org/2000/svg">
<path fill-rule="evenodd" clip-rule="evenodd" d="M61 14H3V50H61V14ZM58 17H6V47H58V17Z" fill="black"/>
<rect x="6" y="17" width="52" height="30" fill="#004D99" fill-opacity="0.5"/>
<path fill-rule="evenodd" clip-rule="evenodd" d="M38.0001 38C38.0001 41.3137 35.3138 44 32.0001 44C28.6863 44 26.0001 41.3137 26.0001 38C26.0001 35.2042 27.9122 32.8551 30.5001 32.189V25.7564L27.0722 29.2132L24.9301 27.0711L32.0011 20L39.0722 27.0711L36.9301 29.2132L33.5001 25.7542V32.189C36.0879 32.8551 38.0001 35.2042 38.0001 38ZM32.0001 41C33.6569 41 35.0001 39.6569 35.0001 38C35.0001 36.3431 33.6569 35 32.0001 35C30.3432 35 29.0001 36.3431 29.0001 38C29.0001 39.6569 30.3432 41 32.0001 41Z" fill="black"/>
</svg>
