<svg width="64" height="64" viewBox="0 0 64 64" fill="none" xmlns="http://www.w3.org/2000/svg">
<path fill-rule="evenodd" clip-rule="evenodd" d="M61 14H3V50H61V14ZM58 17H6V47H58V17Z" fill="black"/>
<rect x="6" y="17" width="52" height="30" fill="#004D99" fill-opacity="0.5"/>
<path fill-rule="evenodd" clip-rule="evenodd" d="M42 23.5V26H33.25V41C36.0331 40.7352 39.0765 39.7706 40.8392 37.6796L39.8219 37.2615L43.953 32.445L43.6521 38.8358L42.4507 38.342C40.8499 40.9295 38.9558 42.4292 37.0702 43.2673C35.1555 44.1182 33.332 44.25 32 44.25C30.6679 44.25 28.8444 44.1182 26.9298 43.2673C25.0442 42.4292 23.1501 40.9295 21.5493 38.342L20.3479 38.8358L20.047 32.445L24.1781 37.2615L23.1608 37.6796C24.9235 39.7706 27.9669 40.7352 30.75 41V26H22V23.5H30.3411C29.5327 22.9625 29 22.0435 29 21C29 19.3431 30.3431 18 32 18C33.6568 18 35 19.3431 35 21C35 22.0435 34.4672 22.9625 33.6589 23.5H42ZM32 22.5C32.8284 22.5 33.5 21.8284 33.5 21C33.5 20.1716 32.8284 19.5 32 19.5C31.1716 19.5 30.5 20.1716 30.5 21C30.5 21.8284 31.1716 22.5 32 22.5Z" fill="black"/>
</svg>
