<svg width="64" height="64" viewBox="0 0 64 64" fill="none" xmlns="http://www.w3.org/2000/svg">
<path fill-rule="evenodd" clip-rule="evenodd" d="M61 14H3V50H61V14ZM58 17H6V47H58V17Z" fill="black"/>
<rect x="6" y="17" width="52" height="30" fill="#004D99" fill-opacity="0.5"/>
<path fill-rule="evenodd" clip-rule="evenodd" d="M18.2739 30.0629C17.4644 30.7388 17 31.5968 17 32.5C17 33.4033 17.4644 34.2613 18.2739 34.9371C19.0675 35.5997 20.0661 35.9738 20.9105 35.9987C22.6047 35.7575 25.0804 34.6573 27.2999 33.4859C27.9489 33.1434 28.5561 32.8057 29.0893 32.5C28.5561 32.1943 27.9489 31.8566 27.2999 31.5141C25.0804 30.3427 22.6046 29.2425 20.9105 29.0013C20.0661 29.0262 19.0675 29.4003 18.2739 30.0629ZM32 30.7346C31.8821 30.6629 31.7529 30.585 31.6134 30.5016C30.8785 30.0623 29.8547 29.4703 28.7001 28.8609C26.4621 27.6797 23.4903 26.2996 21.1861 26.0116L21.0934 26H21C19.3625 26 17.6543 26.6719 16.3511 27.7601C15.0356 28.8585 14 30.5005 14 32.5C14 34.4995 15.0356 36.1415 16.3511 37.24C17.6543 38.3281 19.3625 39 21 39L21.0934 39L21.1861 38.9884C23.4903 38.7004 26.4621 37.3203 28.7001 36.1391C29.8547 35.5298 30.8785 34.9378 31.6134 34.4984C31.7529 34.4151 31.8821 34.3371 32 34.2654C32.1179 34.3371 32.2471 34.4151 32.3866 34.4984C33.1215 34.9378 34.1453 35.5298 35.2999 36.1391C37.5379 37.3203 40.5097 38.7004 42.8139 38.9884L42.9066 39L43 39C44.6375 39 46.3457 38.3281 47.6489 37.24C48.9644 36.1415 50 34.4995 50 32.5C50 30.5005 48.9644 28.8585 47.6489 27.7601C46.3457 26.6719 44.6375 26 43 26L42.9066 26L42.8139 26.0116C40.5097 26.2996 37.5379 27.6798 35.2999 28.8609C34.1453 29.4703 33.1215 30.0623 32.3866 30.5016C32.2471 30.585 32.1179 30.6629 32 30.7346ZM34.9107 32.5C35.4439 32.8057 36.0511 33.1434 36.7001 33.4859C38.9196 34.6573 41.3953 35.7575 43.0895 35.9987C43.9339 35.9738 44.9325 35.5997 45.7261 34.9371C46.5356 34.2613 47 33.4033 47 32.5C47 31.5968 46.5356 30.7388 45.7261 30.0629C44.9325 29.4003 43.9339 29.0263 43.0895 29.0013C41.3954 29.2425 38.9196 30.3427 36.7001 31.5141C36.0511 31.8567 35.4439 32.1943 34.9107 32.5Z" fill="black"/>
</svg>
