<svg width="64" height="64" viewBox="0 0 64 64" fill="none" xmlns="http://www.w3.org/2000/svg">
<path fill-rule="evenodd" clip-rule="evenodd" d="M62 32C62 48.5685 48.5685 62 32 62C15.4315 62 2 48.5685 2 32C2 15.4315 15.4315 2 32 2C48.5685 2 62 15.4315 62 32ZM28.8574 6.18799C15.9799 7.73945 6 18.7043 6 32C6 35.2294 6.58876 38.3212 7.66478 41.1741L28.8574 6.18799ZM58 32C58 18.7043 48.0201 7.73945 35.1426 6.18799L56.3352 41.1741C57.4112 38.3212 58 35.2294 58 32ZM10.5859 46.75C15.276 53.5462 23.1179 58 32 58C40.8821 58 48.724 53.5462 53.4141 46.75H10.5859Z" fill="#C7000D"/>
</svg>
