<svg width="64" height="64" viewBox="0 0 64 64" fill="none" xmlns="http://www.w3.org/2000/svg">
<path fill-rule="evenodd" clip-rule="evenodd" d="M53 11H11V53H53V11ZM27.5 29C27.5 29 27.5388 18.5 32 18.5C36.4612 18.5 36.5 29 36.5 29C36.5 29 36.4612 39.5 32 39.5C27.5388 39.5 27.5 29 27.5 29Z" fill="#660080" fill-opacity="0.5"/>
<path fill-rule="evenodd" clip-rule="evenodd" d="M53 11H11V53H53V11ZM8 8V56H56V8H8Z" fill="black"/>
<path fill-rule="evenodd" clip-rule="evenodd" d="M32 49C41.3888 49 49 41.3888 49 32C49 22.6112 41.3888 15 32 15C22.6112 15 15 22.6112 15 32C15 41.3888 22.6112 49 32 49ZM32 50C41.9411 50 50 41.9411 50 32C50 22.0589 41.9411 14 32 14C22.0589 14 14 22.0589 14 32C14 41.9411 22.0589 50 32 50Z" fill="black"/>
<path fill-rule="evenodd" clip-rule="evenodd" d="M36.6018 33.3089C35.9662 36.5905 34.6264 39.0537 33 39.78V45.3333L35 46V47H29V46L31 45.3333V39.78C29.4269 39.0775 28.122 36.7502 27.4629 33.6289L23.7071 37.3848L23 36.6777L27.2478 32.4298C27.087 31.3505 27 30.1976 27 29C27 27.2813 27.1792 25.6547 27.4986 24.2057L23.0001 19.7071L23.7072 19L27.7856 23.0784C28.674 20.0244 30.2295 18 32 18C33.8279 18 35.4267 20.1579 36.2988 23.3789L40.6777 19L41.3848 19.7071L36.5686 24.5233C36.8459 25.8909 37 27.4058 37 29C37 30.0737 36.9301 31.1115 36.7997 32.0925L41.3848 36.6777L40.6777 37.3848L36.6018 33.3089ZM34.6251 36.3644C35.4585 34.5312 36 31.9284 36 29C36 26.0716 35.4585 23.4688 34.6251 21.6356C33.7509 19.7122 32.7474 19 32 19C31.2526 19 30.2491 19.7122 29.3749 21.6356C28.5415 23.4688 28 26.0716 28 29C28 31.9284 28.5415 34.5312 29.3749 36.3644C30.2491 38.2878 31.2526 39 32 39C32.7474 39 33.7509 38.2878 34.6251 36.3644Z" fill="black"/>
</svg>
