<svg width="64" height="64" viewBox="0 0 64 64" fill="none" xmlns="http://www.w3.org/2000/svg">
<path fill-rule="evenodd" clip-rule="evenodd" d="M11 11H53V53H11V11ZM19 30.5V39H22.5C22.5 39 23.975 41.5 25.5 41.5C27.025 41.5 28.5 39 28.5 39H35.5C35.5 39 36.975 41.5 38.5 41.5C40.025 41.5 41.5 39 41.5 39H45V30.5H37V22H27V30.5H19Z" fill="#660080" fill-opacity="0.5"/>
<path fill-rule="evenodd" clip-rule="evenodd" d="M53 11H11V53H53V11ZM8 8V56H56V8H8Z" fill="black"/>
<path fill-rule="evenodd" clip-rule="evenodd" d="M26.5 21.5H37.5V30H45.5V39.5H41L41.5 38.5H44.5V31H36.5V22.5H27.5V31H19.5V38.5H22.5L23 39.5H18.5V30H26.5V21.5ZM36 39.5H28L28.5 38.5H35.5L36 39.5Z" fill="black"/>
<path fill-rule="evenodd" clip-rule="evenodd" d="M34 25H30V30H34V25ZM29 24V31H35V24H29Z" fill="black"/>
<path fill-rule="evenodd" clip-rule="evenodd" d="M38.5 41C39.8807 41 41 39.8807 41 38.5C41 37.1193 39.8807 36 38.5 36C37.1193 36 36 37.1193 36 38.5C36 39.8807 37.1193 41 38.5 41ZM38.5 42C40.433 42 42 40.433 42 38.5C42 36.567 40.433 35 38.5 35C36.567 35 35 36.567 35 38.5C35 40.433 36.567 42 38.5 42Z" fill="black"/>
<path fill-rule="evenodd" clip-rule="evenodd" d="M25.5 41C26.8807 41 28 39.8807 28 38.5C28 37.1193 26.8807 36 25.5 36C24.1193 36 23 37.1193 23 38.5C23 39.8807 24.1193 41 25.5 41ZM25.5 42C27.433 42 29 40.433 29 38.5C29 36.567 27.433 35 25.5 35C23.567 35 22 36.567 22 38.5C22 40.433 23.567 42 25.5 42Z" fill="black"/>
</svg>
