<svg width="64" height="64" viewBox="0 0 64 64" fill="none" xmlns="http://www.w3.org/2000/svg">
<path d="M11 11H53V53H11V11Z" fill="#660080" fill-opacity="0.5"/>
<path fill-rule="evenodd" clip-rule="evenodd" d="M53 11H11V53H53V11ZM8 8V56H56V8H8Z" fill="black"/>
<path d="M28.3148 34.6116C28.2164 35.973 27.7123 37.0448 26.8028 37.8269C25.8991 38.609 24.7057 39 23.2226 39C21.6005 39 20.3231 38.4554 19.3904 37.3663C18.4635 36.2714 18 34.7709 18 32.865V32.0916C18 30.875 18.2143 29.8033 18.643 28.8763C19.0717 27.9494 19.6829 27.2398 20.4766 26.7473C21.2761 26.2491 22.203 26 23.2574 26C24.7172 26 25.8933 26.391 26.7854 27.1731C27.6776 27.9552 28.1932 29.053 28.3322 30.4666H25.7253C25.6615 29.6497 25.4327 29.0588 25.0388 28.6939C24.6506 28.3231 24.0568 28.1377 23.2574 28.1377C22.3884 28.1377 21.7366 28.4505 21.3021 29.0762C20.8734 29.6961 20.6533 30.6607 20.6417 31.9699V32.9258C20.6417 34.293 20.8474 35.2923 21.2587 35.9238C21.6758 36.5553 22.3304 36.871 23.2226 36.871C24.0279 36.871 24.6275 36.6885 25.0214 36.3235C25.4211 35.9528 25.65 35.3821 25.7079 34.6116H28.3148Z" fill="black"/>
<path d="M32.7988 38.8262H30.1918V26.1738H32.7988V38.8262Z" fill="black"/>
<path d="M39.8984 35.6892L42.766 26.1738H45.6684L41.2627 38.8262H38.5428L34.1544 26.1738H37.0481L39.8984 35.6892Z" fill="black"/>
</svg>
