<svg width="64" height="64" viewBox="0 0 64 64" fill="none" xmlns="http://www.w3.org/2000/svg">
<path d="M31.5783 6.5L29.0783 10H30.9217L32.5 7.79035L34.0783 10H35.9217L33.4217 6.5L35.9217 3H34.0783L32.5 5.20965L30.9217 3H29.0783L31.5783 6.5Z" fill="black"/>
<path d="M40.5783 6.5L38.0783 10H39.9217L41.5 7.79035L43.0783 10H44.9217L42.4217 6.5L44.9217 3H43.0783L41.5 5.20965L39.9217 3H38.0783L40.5783 6.5Z" fill="black"/>
<path d="M49.5783 6.5L47.0783 10H48.9217L50.5 7.79035L52.0783 10H53.9217L51.4217 6.5L53.9217 3H52.0783L50.5 5.20965L48.9217 3H47.0783L49.5783 6.5Z" fill="black"/>
<path d="M12.5783 6.5L10.0783 10H11.9217L13.5 7.79035L15.0783 10H16.9217L14.4217 6.5L16.9217 3H15.0783L13.5 5.20965L11.9217 3H10.0783L12.5783 6.5Z" fill="black"/>
<path d="M21.5783 6.5L19.0783 10H20.9217L22.5 7.79035L24.0783 10H25.9217L23.4217 6.5L25.9217 3H24.0783L22.5 5.20965L20.9217 3H19.0783L21.5783 6.5Z" fill="black"/>
</svg>
