<svg width="64" height="64" viewBox="0 0 64 64" fill="none" xmlns="http://www.w3.org/2000/svg">
<path d="M30.5783 6.5L28.0783 10H29.9217L31.5 7.79035L33.0783 10H34.9217L32.4217 6.5L34.9217 3H33.0783L31.5 5.20965L29.9217 3H28.0783L30.5783 6.5Z" fill="black"/>
<path d="M20.5 6.5L18 10H19.8434L21.4217 7.79035L23 10H24.8434L22.3434 6.5L24.8434 3H23L21.4217 5.20965L19.8434 3H18L20.5 6.5Z" fill="black"/>
<path d="M40.5 6.5L38 10H39.8434L41.4217 7.79035L43 10H44.8434L42.3434 6.5L44.8434 3H43L41.4217 5.20965L39.8434 3H38L40.5 6.5Z" fill="black"/>
</svg>
