<svg width="64" height="64" viewBox="0 0 64 64" fill="none" xmlns="http://www.w3.org/2000/svg">
<path d="M36.5783 6.5L34.0783 10H35.9217L37.5 7.79035L39.0783 10H40.9217L38.4217 6.5L40.9217 3H39.0783L37.5 5.20965L35.9217 3H34.0783L36.5783 6.5Z" fill="black"/>
<path d="M45.5783 6.5L43.0783 10H44.9217L46.5 7.79035L48.0783 10H49.9217L47.4217 6.5L49.9217 3H48.0783L46.5 5.20965L44.9217 3H43.0783L45.5783 6.5Z" fill="black"/>
<path d="M17.5783 6.5L15.0783 10H16.9217L18.5 7.79035L20.0783 10H21.9217L19.4217 6.5L21.9217 3H20.0783L18.5 5.20965L16.9217 3H15.0783L17.5783 6.5Z" fill="black"/>
<path d="M26.5783 6.5L24.0783 10H25.9217L27.5 7.79035L29.0783 10H30.9217L28.4217 6.5L30.9217 3H29.0783L27.5 5.20965L25.9217 3H24.0783L26.5783 6.5Z" fill="black"/>
</svg>
