<svg width="64" height="64" viewBox="0 0 64 64" fill="none" xmlns="http://www.w3.org/2000/svg">
<path fill-rule="evenodd" clip-rule="evenodd" d="M56 8H8V56H56V8ZM53 11H11V53H53V11Z" fill="black"/>
<rect x="11" y="11" width="42" height="42" fill="#008000" fill-opacity="0.5"/>
<path fill-rule="evenodd" clip-rule="evenodd" d="M38.07 38C38.07 41.3137 35.3837 44 32.07 44C28.7563 44 26.07 41.3137 26.07 38C26.07 35.2042 27.9822 32.8551 30.57 32.189V25.7564L27.1421 29.2132L25 27.0711L32.0711 20L39.1421 27.0711L37 29.2132L33.57 25.7542V32.189C36.1578 32.8551 38.07 35.2042 38.07 38ZM32.07 41C33.7269 41 35.07 39.6569 35.07 38C35.07 36.3431 33.7269 35 32.07 35C30.4131 35 29.07 36.3431 29.07 38C29.07 39.6569 30.4131 41 32.07 41Z" fill="black"/>
</svg>
