<svg width="64" height="64" viewBox="0 0 64 64" fill="none" xmlns="http://www.w3.org/2000/svg">
<path fill-rule="evenodd" clip-rule="evenodd" d="M32 1L1 32L32 63L63 32L32 1ZM59 32L32 59L5 32L32 5L59 32Z" fill="black"/>
<path fill-rule="evenodd" clip-rule="evenodd" d="M59 32L32 59L5 32L32 5L59 32Z" fill="#800000" fill-opacity="0.5"/>
<path d="M24.9081 31.1526C24.5094 27.1366 21.121 24 17 24V26.3842C20.0724 26.3842 22.5632 28.8749 22.5632 31.9474C22.5632 35.0198 20.0724 37.5105 17 37.5105V39.8947C20.8449 39.8947 24.052 37.1644 24.7884 33.5368H39.4116C40.148 37.1644 43.3551 39.8947 47.2 39.8947V37.5105C44.1276 37.5105 41.6368 35.0198 41.6368 31.9474C41.6368 28.8749 44.1276 26.3842 47.2 26.3842V24C43.079 24 39.6906 27.1366 39.2919 31.1526H24.9081Z" fill="black"/>
</svg>
