<svg width="64" height="64" viewBox="0 0 64 64" fill="none" xmlns="http://www.w3.org/2000/svg">
<path fill-rule="evenodd" clip-rule="evenodd" d="M32 1L1 32L32 63L63 32L32 1ZM59 32L32 59L5 32L32 5L59 32Z" fill="black"/>
<path fill-rule="evenodd" clip-rule="evenodd" d="M59 32L32 59L5 32L32 5L59 32Z" fill="#800000" fill-opacity="0.5"/>
<path fill-rule="evenodd" clip-rule="evenodd" d="M41.953 24.5V27H33.203V42C35.9861 41.7352 39.0295 40.7706 40.7922 38.6796L39.7749 38.2615L43.906 33.445L43.6051 39.8358L42.4037 39.342C40.8029 41.9295 38.9088 43.4292 37.0232 44.2673C35.1085 45.1182 33.285 45.25 31.953 45.25C30.6209 45.25 28.7975 45.1182 26.8828 44.2673C24.9972 43.4292 23.1031 41.9295 21.5023 39.342L20.3009 39.8358L20 33.445L24.1311 38.2615L23.1138 38.6796C24.8765 40.7706 27.9199 41.7352 30.703 42V27H21.953V24.5H30.2941C29.4857 23.9625 28.953 23.0435 28.953 22C28.953 20.3431 30.2961 19 31.953 19C33.6098 19 34.953 20.3431 34.953 22C34.953 23.0435 34.4202 23.9625 33.6119 24.5H41.953ZM31.953 23.5C32.7814 23.5 33.453 22.8284 33.453 22C33.453 21.1716 32.7814 20.5 31.953 20.5C31.1246 20.5 30.453 21.1716 30.453 22C30.453 22.8284 31.1246 23.5 31.953 23.5Z" fill="black"/>
</svg>
