<svg width="64" height="64" viewBox="0 0 64 64" fill="none" xmlns="http://www.w3.org/2000/svg">
<circle cx="32" cy="32" r="20" fill="white" fill-opacity="0.5"/>
<path fill-rule="evenodd" clip-rule="evenodd" d="M46.8492 46.8492C50.6495 43.049 53 37.799 53 32C53 20.402 43.598 11 32 11C28.7547 11 25.6813 11.7362 22.9378 13.0506L13.5 13.5L17.1508 17.1508C13.3505 20.951 11 26.201 11 32C11 43.598 20.402 53 32 53C35.2453 53 38.3187 52.2638 41.0622 50.9494L50.5 50.5L46.8492 46.8492ZM44.7279 44.7279C47.9853 41.4706 50 36.9706 50 32C50 22.0589 41.9411 14 32 14C29.0705 14 26.3045 14.6998 23.8599 15.9414L23.5 23.5L19.2721 19.2721C16.0147 22.5294 14 27.0294 14 32C14 41.9411 22.0589 50 32 50C34.9295 50 37.6955 49.3002 40.1401 48.0586L40.5 40.5L44.7279 44.7279Z" fill="black"/>
<path fill-rule="evenodd" clip-rule="evenodd" d="M21.7054 30.3128C21.0983 30.7807 20.75 31.3747 20.75 32C20.75 32.6253 21.0983 33.2193 21.7054 33.6872C22.3006 34.146 23.0496 34.4049 23.6829 34.4222C24.9535 34.2552 26.8103 33.4935 28.4749 32.6826C28.9617 32.4454 29.4171 32.2116 29.817 32C29.4171 31.7884 28.9617 31.5546 28.4749 31.3174C26.8103 30.5065 24.9535 29.7448 23.6829 29.5778C23.0496 29.5951 22.3006 29.854 21.7054 30.3128ZM32 30.7778C31.9116 30.7282 31.8147 30.6742 31.7101 30.6165C31.1589 30.3123 30.391 29.9025 29.5251 29.4806C27.8466 28.6629 25.6178 27.7074 23.8895 27.508L23.82 27.5H23.75C22.5219 27.5 21.2407 27.9652 20.2633 28.7185C19.2767 29.4789 18.5 30.6157 18.5 32C18.5 33.3843 19.2767 34.5211 20.2633 35.2815C21.2407 36.0348 22.5219 36.5 23.75 36.5L23.82 36.5L23.8895 36.492C25.6178 36.2926 27.8466 35.3371 29.5251 34.5194C30.391 34.0975 31.1589 33.6877 31.7101 33.3835C31.8146 33.3258 31.9116 33.2718 32 33.2222C32.0884 33.2718 32.1853 33.3258 32.2899 33.3835C32.8411 33.6877 33.609 34.0975 34.4749 34.5194C36.1534 35.3371 38.3822 36.2926 40.1105 36.492L40.18 36.5L40.25 36.5C41.4781 36.5 42.7593 36.0348 43.7367 35.2815C44.7233 34.5211 45.5 33.3843 45.5 32C45.5 30.6157 44.7233 29.4789 43.7367 28.7185C42.7593 27.9652 41.4781 27.5 40.25 27.5L40.18 27.5L40.1105 27.508C38.3822 27.7074 36.1534 28.6629 34.4749 29.4806C33.609 29.9025 32.8411 30.3123 32.2899 30.6165C32.1854 30.6742 32.0884 30.7282 32 30.7778ZM34.183 32C34.5829 32.2116 35.0383 32.4454 35.5251 32.6826C37.1897 33.4935 39.0465 34.2552 40.3171 34.4222C40.9504 34.4049 41.6994 34.146 42.2946 33.6872C42.9017 33.2193 43.25 32.6253 43.25 32C43.25 31.3747 42.9017 30.7807 42.2946 30.3128C41.6994 29.854 40.9504 29.5951 40.3171 29.5779C39.0465 29.7448 37.1897 30.5065 35.5251 31.3174C35.0383 31.5546 34.5829 31.7884 34.183 32Z" fill="black"/>
</svg>
