<svg width="64" height="64" viewBox="0 0 64 64" fill="none" xmlns="http://www.w3.org/2000/svg">
<circle cx="32" cy="32" r="20" fill="white" fill-opacity="0.5"/>
<path fill-rule="evenodd" clip-rule="evenodd" d="M46.8492 46.8492C50.6495 43.049 53 37.799 53 32C53 20.402 43.598 11 32 11C28.7547 11 25.6813 11.7362 22.9378 13.0506L13.5 13.5L17.1508 17.1508C13.3505 20.951 11 26.201 11 32C11 43.598 20.402 53 32 53C35.2453 53 38.3187 52.2638 41.0622 50.9494L50.5 50.5L46.8492 46.8492ZM44.7279 44.7279C47.9853 41.4706 50 36.9706 50 32C50 22.0589 41.9411 14 32 14C29.0705 14 26.3045 14.6998 23.8599 15.9414L23.5 23.5L19.2721 19.2721C16.0147 22.5294 14 27.0294 14 32C14 41.9411 22.0589 50 32 50C34.9295 50 37.6955 49.3002 40.1401 48.0586L40.5 40.5L44.7279 44.7279Z" fill="black"/>
<path fill-rule="evenodd" clip-rule="evenodd" d="M40.3661 25.6013V27.6929H33.0457V40.242C35.3741 40.0205 37.9203 39.2135 39.3949 37.4641L38.5439 37.1143L42 33.0848L41.7482 38.4314L40.7431 38.0183C39.4039 40.183 37.8193 41.4377 36.2417 42.1388C34.6399 42.8507 33.1144 42.961 32 42.961C30.8856 42.961 29.36 42.8507 27.7582 42.1388C26.1807 41.4377 24.5961 40.183 23.2568 38.0183L22.2518 38.4314L22 33.0848L25.4561 37.1143L24.605 37.4641C26.0797 39.2135 28.6259 40.0204 30.9542 40.242V27.6929H23.6339V25.6013H30.6121C29.9358 25.1517 29.4901 24.3828 29.4901 23.5098C29.4901 22.1237 30.6138 21 32 21C33.3861 21 34.5098 22.1237 34.5098 23.5098C34.5098 24.3828 34.0641 25.1517 33.3878 25.6013H40.3661ZM32 24.7647C32.693 24.7647 33.2549 24.2029 33.2549 23.5098C33.2549 22.8168 32.693 22.2549 32 22.2549C31.3069 22.2549 30.7451 22.8168 30.7451 23.5098C30.7451 24.2029 31.3069 24.7647 32 24.7647Z" fill="black"/>
</svg>
