<svg width="64" height="64" viewBox="0 0 64 64" fill="none" xmlns="http://www.w3.org/2000/svg">
<circle cx="32" cy="32" r="20" fill="white" fill-opacity="0.5"/>
<path fill-rule="evenodd" clip-rule="evenodd" d="M46.8492 46.8492C50.6495 43.049 53 37.799 53 32C53 20.402 43.598 11 32 11C28.7547 11 25.6813 11.7362 22.9378 13.0506L13.5 13.5L17.1508 17.1508C13.3505 20.951 11 26.201 11 32C11 43.598 20.402 53 32 53C35.2453 53 38.3187 52.2638 41.0622 50.9494L50.5 50.5L46.8492 46.8492ZM44.7279 44.7279C47.9853 41.4706 50 36.9706 50 32C50 22.0589 41.9411 14 32 14C29.0705 14 26.3045 14.6998 23.8599 15.9414L23.5 23.5L19.2721 19.2721C16.0147 22.5294 14 27.0294 14 32C14 41.9411 22.0589 50 32 50C34.9295 50 37.6955 49.3002 40.1401 48.0586L40.5 40.5L44.7279 44.7279Z" fill="black"/>
<path fill-rule="evenodd" clip-rule="evenodd" d="M37.625 27.25H26.375C23.4755 27.25 21.125 29.6005 21.125 32.5C21.125 35.3995 23.4755 37.75 26.375 37.75H37.625C40.5245 37.75 42.875 35.3995 42.875 32.5C42.875 29.6005 40.5245 27.25 37.625 27.25ZM26.375 25C22.2329 25 18.875 28.3579 18.875 32.5C18.875 36.6421 22.2329 40 26.375 40H37.625C41.7671 40 45.125 36.6421 45.125 32.5C45.125 28.3579 41.7671 25 37.625 25H26.375Z" fill="black"/>
</svg>
