<svg width="64" height="64" viewBox="0 0 64 64" fill="none" xmlns="http://www.w3.org/2000/svg">
<path d="M21 5H41V17C41 17 36.1993 9.5 31 9.5C23 9.5 21 17 21 17V13.5V5Z" fill="black"/>
<path fill-rule="evenodd" clip-rule="evenodd" d="M16.6217 43.2843C17.6624 43.4936 18.4789 44.3772 18.6104 45.4305C19.3421 51.2911 24.4409 56 30.52 56C36.5448 56 41.6071 51.3746 42.4091 45.587C42.563 44.4763 43.4765 43.5631 44.5866 43.4046C50.3331 42.5845 55 37.4783 55 31.52C55 25.4408 50.2911 20.3421 44.4305 19.6104C43.3771 19.4789 42.4936 18.6624 42.2843 17.6217C41.1809 12.1335 36.3331 8 30.52 8C24.6566 8 19.7754 12.2053 18.7279 17.7644C18.5422 18.75 17.75 19.5422 16.7644 19.7279C11.2053 20.7754 7 25.6565 7 31.52C7 37.3332 11.1335 42.1809 16.6217 43.2843ZM30.9996 31.9906C30.9947 31.9908 30.9908 31.9947 30.9906 31.9996V31.9996C30.9904 32.0048 30.9944 32.0092 30.9997 32.0094V32.0094C31.0051 32.0097 31.0096 32.0051 31.0094 31.9997V31.9997C31.0092 31.9945 31.0048 31.9904 30.9996 31.9906V31.9906Z" fill="#008000" fill-opacity="0.5"/>
<path fill-rule="evenodd" clip-rule="evenodd" d="M39.8134 17.6139C38.9401 13.2704 35.0986 10 30.5 10C25.8614 10 21.9936 13.3275 21.1647 17.7267C20.7424 19.9676 18.9676 21.7424 16.7267 22.1647C12.3275 22.9936 9 26.8614 9 31.5C9 36.0986 12.2704 39.9401 16.6139 40.8134C18.9696 41.287 20.775 43.2474 21.071 45.6185C21.6514 50.2673 25.7262 54 30.5 54C35.23 54 39.2763 50.3347 39.9128 45.7414C40.2577 43.2524 42.2543 41.2631 44.7289 40.9099C49.2967 40.258 53 36.1536 53 31.5C53 26.7262 49.2673 22.6515 44.6184 22.071C42.2474 21.775 40.287 19.9695 39.8134 17.6139ZM18.0942 45.9901C17.9572 44.8929 17.1067 43.9725 16.0226 43.7545C10.3057 42.6051 6 37.5554 6 31.5C6 25.3922 10.3805 20.3077 16.1712 19.2166C17.1979 19.0231 18.0231 18.1979 18.2166 17.1712C19.3077 11.3805 24.3923 7 30.5 7C36.5554 7 41.6051 11.3057 42.7545 17.0226C42.9725 18.1067 43.8928 18.9572 44.9901 19.0942C51.0949 19.8563 56 25.1675 56 31.5C56 37.7066 51.1386 43.0255 45.1528 43.8798C43.9964 44.0449 43.0448 44.9961 42.8844 46.1532C42.049 52.1819 36.7758 57 30.5 57C24.1676 57 18.8563 52.0949 18.0942 45.9901Z" fill="black"/>
</svg>
