<svg width="64" height="64" viewBox="0 0 64 64" fill="none" xmlns="http://www.w3.org/2000/svg">
<path fill-rule="evenodd" clip-rule="evenodd" d="M45 58V64H29V49.8713C27.2137 49.7223 24.908 49.4019 22.6639 48.7141C18.7194 47.5051 14 44.8082 14 39C14 35.6011 14.9928 32.9019 15.9891 31.0518C16.2805 30.5106 16.5731 30.0401 16.8432 29.6435C16.6676 29.417 16.4876 29.1632 16.309 28.8805C15.3617 27.3806 14.5 25.1365 14.5 22C14.5 18.8395 15.3781 16.5218 16.8 14.7049C17.8591 13.3516 19.1772 12.3434 20.3969 11.5046C20.189 7.84894 21.3109 4.96498 23.4497 2.97371C25.7498 0.832177 28.9317 0 32 0C35.0683 0 38.2502 0.832177 40.5503 2.97371C42.6891 4.96499 43.811 7.84895 43.6031 11.5046C44.8228 12.3434 46.1409 13.3516 47.2 14.7049C48.6219 16.5218 49.5 18.8395 49.5 22C49.5 25.1365 48.6383 27.3806 47.691 28.8805C47.5124 29.1632 47.3324 29.417 47.1568 29.6435C47.4269 30.0401 47.7195 30.5106 48.0109 31.0518C49.0071 32.9019 50 35.6011 50 39C50 44.8082 45.2806 47.5051 41.3361 48.7141C39.0919 49.4019 36.7862 49.7223 35 49.8713V58H45ZM26.1753 5.90129C24.9291 7.06156 24.05 8.99254 24.4825 12.2357L24.6473 13.4722L23.6094 14.1641C22.0641 15.1943 20.8443 16.0274 19.95 17.1701C19.1219 18.2282 18.5 19.6605 18.5 22C18.5 24.3635 19.1383 25.8694 19.691 26.7445C19.9727 27.1905 20.2442 27.4914 20.4254 27.6676C20.516 27.7557 20.5838 27.8123 20.6182 27.8398L20.6354 27.8532L22.6393 29.1891L20.9216 30.9068L20.9136 30.9152C20.9012 30.9283 20.8771 30.9542 20.8429 30.9925C20.7746 31.0692 20.6666 31.1952 20.5318 31.3685C20.2617 31.7158 19.8881 32.2478 19.5109 32.9482C18.7572 34.3481 18 36.3989 18 39C18 41.9969 20.2806 43.8 23.8361 44.8897C27.2867 45.9473 31.037 46 32 46C32.963 46 36.7132 45.9473 40.1639 44.8897C43.7194 43.8 46 41.9969 46 39C46 36.3989 45.2428 34.3481 44.489 32.9482C44.1119 32.2478 43.7383 31.7158 43.4682 31.3685C43.3334 31.1952 43.2254 31.0692 43.1571 30.9925C43.1229 30.9542 43.0988 30.9283 43.0864 30.9152L43.0783 30.9068L41.3607 29.1892L43.3646 27.8532L43.3818 27.8398C43.4162 27.8123 43.4839 27.7557 43.5746 27.6676C43.7558 27.4914 44.0273 27.1905 44.309 26.7445C44.8617 25.8694 45.5 24.3635 45.5 22C45.5 19.6605 44.878 18.2282 44.05 17.1701C43.1556 16.0274 41.9358 15.1943 40.3906 14.1641L39.3527 13.4722L39.5175 12.2357C39.9499 8.99254 39.0709 7.06155 37.8246 5.90129C36.4998 4.66782 34.4317 4 32 4C29.5683 4 27.5002 4.66782 26.1753 5.90129Z" fill="#406633"/>
</svg>
