<svg width="64" height="64" viewBox="0 0 64 64" fill="none" xmlns="http://www.w3.org/2000/svg">
<path d="M44 56.5H34L33.9999 23.75C34.402 23.75 35.0548 23.9026 35.9591 24.3264C36.833 24.736 37.789 25.3259 38.7511 26.0159C40.6813 27.4002 42.4429 29.0471 43.3466 30.0261L46.6532 26.9739C45.5569 25.7862 43.5684 23.9331 41.3737 22.3591C40.6411 21.8337 39.8643 21.324 39.0714 20.8754C40.3941 20.7483 41.5109 20.8037 42.505 20.9694C44.3937 21.2842 46.0066 22.0189 47.9937 23.0125L50.0061 18.9875C47.9931 17.9811 45.856 16.9658 43.2448 16.5306C41.2005 16.1899 38.9636 16.2172 36.3217 16.7418C36.6149 15.2582 37.8007 14.1936 39.7758 13.4004C42.0605 12.483 44.7471 12.25 45.9999 12.25V7.75C44.4194 7.75 41.1059 8.01703 38.0989 9.22456C35.5908 10.2318 32.831 12.1213 31.9999 15.4174C31.1688 12.1213 28.409 10.2318 25.9008 9.22456C22.8939 8.01703 19.5804 7.75 17.9999 7.75V12.25C19.2527 12.25 21.9392 12.483 24.2239 13.4004C26.1991 14.1936 27.3849 15.2582 27.6781 16.7418C25.0361 16.2172 22.7992 16.1899 20.755 16.5306C18.1437 16.9658 16.0066 17.9811 13.9937 18.9875L16.0061 23.0125C17.9931 22.0189 19.606 21.2842 21.4948 20.9694C22.4888 20.8037 23.6057 20.7483 24.9283 20.8754C24.1355 21.324 23.3587 21.8337 22.6261 22.3591C20.4313 23.9331 18.4429 25.7862 17.3466 26.9739L20.6532 30.0261C21.5569 29.0471 23.3184 27.4002 25.2487 26.0159C26.2108 25.3259 27.1668 24.736 28.0407 24.3264C28.945 23.9026 29.5977 23.75 29.9999 23.75L30 60.5H43.9999L44 56.5Z" fill="#406633"/>
</svg>
