<svg width="64" height="64" viewBox="0 0 64 64" fill="none" xmlns="http://www.w3.org/2000/svg">
<path fill-rule="evenodd" clip-rule="evenodd" d="M40.5 7.50001C40.1169 5.53703 40.1159 5.53723 40.1159 5.53723L40.11 5.53839L40.0956 5.54124L40.0449 5.5514C40.0016 5.56016 39.9393 5.5729 39.8593 5.58966C39.6995 5.62317 39.4687 5.67276 39.1771 5.7387C38.5941 5.87051 37.766 6.06803 36.7727 6.33343C34.7923 6.86262 32.1272 7.66914 29.4294 8.77427C26.7512 9.87138 23.9341 11.3054 21.7209 13.128C19.5232 14.9379 17.6724 17.3439 17.5032 20.3891C17.3224 23.6437 19.4974 26.2665 21.9015 28.3063C24.167 30.2285 27.1247 32.0365 30.0001 33.7491V54.1523C28.7738 54.5873 27.6242 54.9491 26.6413 55.2368C25.7087 55.5097 24.9333 55.7139 24.3941 55.8492C24.1247 55.9168 23.9148 55.967 23.7742 55.9999C23.7039 56.0164 23.651 56.0285 23.6168 56.0363L23.5795 56.0447L23.5716 56.0464L23.5706 56.0466C23.5706 56.0466 23.5711 56.0465 24 58C24.4288 59.9535 24.4298 59.9533 24.4298 59.9533L24.4501 59.9488L24.5007 59.9374C24.544 59.9276 24.6063 59.9133 24.6861 59.8946C24.8459 59.8572 25.0763 59.802 25.3675 59.729C25.9495 59.583 26.7756 59.3653 27.7649 59.0757C29.7373 58.4984 32.3871 57.6271 35.0539 56.4563C37.7001 55.2945 40.4737 53.7906 42.6164 51.9091C44.7468 50.0386 46.5 47.5684 46.5001 44.5001C46.5001 41.2863 44.2508 38.7039 41.7975 36.6769C39.5833 34.8475 36.7588 33.1175 34.0001 31.4736V11.3424C35.3962 10.8725 36.7056 10.4917 37.8053 10.1978C38.7418 9.94762 39.5191 9.76232 40.0592 9.64023C40.329 9.57921 40.5392 9.53408 40.6799 9.5046C40.7502 9.48986 40.8031 9.47904 40.8374 9.47211L40.8746 9.46464L40.8825 9.46309L40.8835 9.46288C40.8835 9.46288 40.883 9.46299 40.5 7.50001ZM24.2637 16.2157C22.477 17.6871 21.5779 19.1561 21.497 20.6109C21.4279 21.8563 22.2529 23.3586 24.4894 25.2562C25.9985 26.5367 27.903 27.7923 30.0001 29.078V12.8764C27.8392 13.8239 25.8109 14.9416 24.2637 16.2157ZM39.9772 48.9034C41.6907 47.3989 42.5 45.9317 42.5001 44.5C42.5001 43.2138 41.562 41.6711 39.2497 39.7606C37.7803 38.5465 35.9735 37.3575 34.0001 36.1459V52.5457C36.273 51.5086 38.4035 50.2852 39.9772 48.9034Z" fill="#406633"/>
</svg>
