<svg width="64" height="64" viewBox="0 0 64 64" fill="none" xmlns="http://www.w3.org/2000/svg">
<path fill-rule="evenodd" clip-rule="evenodd" d="M63 32C63 32 48.4229 28.4229 42 22C35.5771 15.5771 32 1 32 1C32 1 28.4229 15.5771 22 22C15.5771 28.4229 1 32 1 32C1 32 15.5771 35.5771 22 42C28.4229 48.4229 32 63 32 63C32 63 35.5771 48.4229 42 42C48.4229 35.5771 63 32 63 32ZM32 44C38.6274 44 44 38.6274 44 32C44 25.3726 38.6274 20 32 20C25.3726 20 20 25.3726 20 32C20 38.6274 25.3726 44 32 44Z" fill="#C7000D"/>
</svg>
